<mxfile host="app.diagrams.net" modified="2024-02-21T07:51:24.293Z" agent="Mozilla/5.0 (Windows NT 10.0; Win64; x64) AppleWebKit/537.36 (KHTML, like Gecko) Chrome/121.0.0.0 Safari/537.36" etag="6n-7vhEvBre4OQ5HJ9gP" version="23.1.5" type="github">
  <diagram name="Page-1" id="TDrRq_clcDp7jgMqb2wg">
    <mxGraphModel dx="1434" dy="746" grid="1" gridSize="10" guides="1" tooltips="1" connect="1" arrows="1" fold="1" page="1" pageScale="1" pageWidth="850" pageHeight="1100" math="0" shadow="0">
      <root>
        <mxCell id="0" />
        <mxCell id="1" parent="0" />
        <mxCell id="6mpAcv2N_suDXsIpBkOx-11" style="edgeStyle=orthogonalEdgeStyle;rounded=0;orthogonalLoop=1;jettySize=auto;html=1;exitX=0.5;exitY=0.5;exitDx=0;exitDy=0;exitPerimeter=0;entryX=0;entryY=0.5;entryDx=0;entryDy=0;" edge="1" parent="1" source="6mpAcv2N_suDXsIpBkOx-1" target="6mpAcv2N_suDXsIpBkOx-10">
          <mxGeometry relative="1" as="geometry" />
        </mxCell>
        <mxCell id="6mpAcv2N_suDXsIpBkOx-35" style="edgeStyle=orthogonalEdgeStyle;rounded=0;orthogonalLoop=1;jettySize=auto;html=1;exitX=0.5;exitY=0.5;exitDx=0;exitDy=0;exitPerimeter=0;" edge="1" parent="1" source="6mpAcv2N_suDXsIpBkOx-1" target="6mpAcv2N_suDXsIpBkOx-32">
          <mxGeometry relative="1" as="geometry">
            <Array as="points">
              <mxPoint x="155" y="200" />
            </Array>
          </mxGeometry>
        </mxCell>
        <mxCell id="6mpAcv2N_suDXsIpBkOx-36" style="edgeStyle=orthogonalEdgeStyle;rounded=0;orthogonalLoop=1;jettySize=auto;html=1;exitX=0.5;exitY=0.5;exitDx=0;exitDy=0;exitPerimeter=0;" edge="1" parent="1" source="6mpAcv2N_suDXsIpBkOx-1" target="6mpAcv2N_suDXsIpBkOx-30">
          <mxGeometry relative="1" as="geometry">
            <Array as="points">
              <mxPoint x="155" y="530" />
            </Array>
          </mxGeometry>
        </mxCell>
        <mxCell id="6mpAcv2N_suDXsIpBkOx-1" value="사용자" style="shape=umlActor;verticalLabelPosition=bottom;verticalAlign=top;outlineConnect=0;fontStyle=0;align=center;horizontal=1;html=1;" vertex="1" parent="1">
          <mxGeometry x="140" y="330" width="30" height="60" as="geometry" />
        </mxCell>
        <mxCell id="6mpAcv2N_suDXsIpBkOx-10" value="주문" style="ellipse;whiteSpace=wrap;html=1;" vertex="1" parent="1">
          <mxGeometry x="260" y="335" width="120" height="50" as="geometry" />
        </mxCell>
        <mxCell id="6mpAcv2N_suDXsIpBkOx-28" style="edgeStyle=orthogonalEdgeStyle;rounded=0;orthogonalLoop=1;jettySize=auto;html=1;exitX=1;exitY=0.5;exitDx=0;exitDy=0;" edge="1" parent="1" source="6mpAcv2N_suDXsIpBkOx-12" target="6mpAcv2N_suDXsIpBkOx-25">
          <mxGeometry relative="1" as="geometry" />
        </mxCell>
        <mxCell id="6mpAcv2N_suDXsIpBkOx-12" value="도우 조회" style="ellipse;whiteSpace=wrap;html=1;" vertex="1" parent="1">
          <mxGeometry x="460" y="320" width="120" height="80" as="geometry" />
        </mxCell>
        <mxCell id="6mpAcv2N_suDXsIpBkOx-29" style="edgeStyle=orthogonalEdgeStyle;rounded=0;orthogonalLoop=1;jettySize=auto;html=1;exitX=1;exitY=0.5;exitDx=0;exitDy=0;" edge="1" parent="1" source="6mpAcv2N_suDXsIpBkOx-14" target="6mpAcv2N_suDXsIpBkOx-26">
          <mxGeometry relative="1" as="geometry" />
        </mxCell>
        <mxCell id="6mpAcv2N_suDXsIpBkOx-14" value="엣지 조회" style="ellipse;whiteSpace=wrap;html=1;" vertex="1" parent="1">
          <mxGeometry x="460" y="440" width="120" height="80" as="geometry" />
        </mxCell>
        <mxCell id="6mpAcv2N_suDXsIpBkOx-27" style="edgeStyle=orthogonalEdgeStyle;rounded=0;orthogonalLoop=1;jettySize=auto;html=1;exitX=1;exitY=0.5;exitDx=0;exitDy=0;" edge="1" parent="1" source="6mpAcv2N_suDXsIpBkOx-15" target="6mpAcv2N_suDXsIpBkOx-24">
          <mxGeometry relative="1" as="geometry" />
        </mxCell>
        <mxCell id="6mpAcv2N_suDXsIpBkOx-15" value="토핑 조회" style="ellipse;whiteSpace=wrap;html=1;" vertex="1" parent="1">
          <mxGeometry x="460" y="200" width="120" height="80" as="geometry" />
        </mxCell>
        <mxCell id="6mpAcv2N_suDXsIpBkOx-16" value="include" style="endArrow=open;endSize=12;dashed=1;html=1;rounded=0;" edge="1" parent="1" source="6mpAcv2N_suDXsIpBkOx-12" target="6mpAcv2N_suDXsIpBkOx-10">
          <mxGeometry width="160" relative="1" as="geometry">
            <mxPoint x="340" y="430" as="sourcePoint" />
            <mxPoint x="500" y="430" as="targetPoint" />
          </mxGeometry>
        </mxCell>
        <mxCell id="6mpAcv2N_suDXsIpBkOx-19" value="include" style="endArrow=open;endSize=12;dashed=1;html=1;rounded=0;" edge="1" parent="1" source="6mpAcv2N_suDXsIpBkOx-14" target="6mpAcv2N_suDXsIpBkOx-10">
          <mxGeometry width="160" relative="1" as="geometry">
            <mxPoint x="470" y="370" as="sourcePoint" />
            <mxPoint x="390" y="370" as="targetPoint" />
          </mxGeometry>
        </mxCell>
        <mxCell id="6mpAcv2N_suDXsIpBkOx-20" value="include" style="endArrow=open;endSize=12;dashed=1;html=1;rounded=0;" edge="1" parent="1" source="6mpAcv2N_suDXsIpBkOx-15" target="6mpAcv2N_suDXsIpBkOx-10">
          <mxGeometry width="160" relative="1" as="geometry">
            <mxPoint x="485" y="463" as="sourcePoint" />
            <mxPoint x="364" y="391" as="targetPoint" />
          </mxGeometry>
        </mxCell>
        <mxCell id="6mpAcv2N_suDXsIpBkOx-24" value="토핑 선택" style="ellipse;whiteSpace=wrap;html=1;" vertex="1" parent="1">
          <mxGeometry x="640" y="200" width="120" height="80" as="geometry" />
        </mxCell>
        <mxCell id="6mpAcv2N_suDXsIpBkOx-25" value="도우 선택" style="ellipse;whiteSpace=wrap;html=1;" vertex="1" parent="1">
          <mxGeometry x="640" y="320" width="120" height="80" as="geometry" />
        </mxCell>
        <mxCell id="6mpAcv2N_suDXsIpBkOx-26" value="엣지 선택" style="ellipse;whiteSpace=wrap;html=1;" vertex="1" parent="1">
          <mxGeometry x="640" y="440" width="120" height="80" as="geometry" />
        </mxCell>
        <mxCell id="6mpAcv2N_suDXsIpBkOx-30" value="주문 내역 조회" style="ellipse;whiteSpace=wrap;html=1;" vertex="1" parent="1">
          <mxGeometry x="230" y="490" width="120" height="80" as="geometry" />
        </mxCell>
        <mxCell id="6mpAcv2N_suDXsIpBkOx-32" value="배달 상태 조회" style="ellipse;whiteSpace=wrap;html=1;" vertex="1" parent="1">
          <mxGeometry x="230" y="160" width="120" height="80" as="geometry" />
        </mxCell>
      </root>
    </mxGraphModel>
  </diagram>
</mxfile>
